<?xml version="1.0" standalone="no"?>
<!DOCTYPE svg PUBLIC "-//W3C//DTD SVG 20010904//EN"
 "http://www.w3.org/TR/2001/REC-SVG-20010904/DTD/svg10.dtd">
<svg version="1.0" xmlns="http://www.w3.org/2000/svg"
 width="700.000000pt" height="700.000000pt" viewBox="0 0 700.000000 700.000000"
 preserveAspectRatio="xMidYMid meet">
<metadata>
Created by potrace 1.14, written by Peter Selinger 2001-2017
</metadata>
<g transform="translate(0.000000,700.000000) scale(0.100000,-0.100000)"
fill="#000000" stroke="none">
<path d="M2901 5919 c-29 -5 -79 -19 -110 -32 -31 -13 -671 -380 -1424 -817
l-1367 -795 2 -403 3 -404 2060 -1189 c1133 -655 2067 -1194 2076 -1199 11 -6
56 15 167 80 l151 88 3 -60 3 -60 73 106 c40 58 74 106 75 106 1 0 31 -9 67
-20 36 -11 68 -20 73 -20 4 0 7 28 7 63 l1 62 1051 610 c579 336 1071 623
1095 639 66 43 93 97 93 185 0 110 -31 152 -175 234 l-80 46 -5 -167 c-6 -188
-10 -200 -84 -251 -44 -31 -1883 -1101 -1891 -1101 -3 0 -5 70 -5 156 0 93 -4
154 -9 152 -6 -1 -73 -39 -150 -83 l-140 -80 -3 -164 -3 -164 -118 -68 c-65
-38 -120 -69 -122 -69 -3 0 -5 120 -5 268 l1 267 1241 720 c1438 834 1467 851
1492 873 37 34 56 88 56 162 0 80 -12 110 -62 156 -42 40 -3656 2126 -3720
2148 -101 34 -211 42 -317 25z m1169 -1147 l64 -38 40 -192 c22 -106 44 -192
49 -192 5 0 73 38 152 84 l143 84 81 -46 c44 -25 79 -47 77 -49 -2 -2 -122
-73 -267 -157 l-262 -153 -69 39 c-44 26 -70 48 -73 61 -2 12 -17 101 -31 197
-15 96 -28 177 -30 179 -2 2 -70 -35 -152 -83 l-150 -86 -81 47 -81 48 58 32
c31 18 145 84 252 147 107 63 200 115 205 115 6 0 39 -16 75 -37z m-472 -676
c55 -32 70 -45 60 -53 -7 -6 -73 -45 -146 -87 l-133 -77 -62 35 c-111 62 -115
51 46 144 78 45 146 82 152 82 5 -1 43 -20 83 -44z m-736 -327 c238 -67 439
-125 447 -129 9 -5 -16 -24 -78 -59 l-91 -52 -85 26 -86 26 -72 -40 c-117 -65
-113 -58 -66 -114 23 -27 38 -52 33 -57 -28 -25 -176 -102 -183 -94 -117 134
-431 517 -427 522 15 14 152 92 163 92 7 0 207 -55 445 -121z"/>
<path d="M2570 3694 c54 -64 115 -124 125 -124 5 0 34 16 64 34 l53 33 -115
37 c-64 20 -124 39 -134 43 -14 5 -13 0 7 -23z"/>
</g>
</svg>
